# xmcd
#
# Track frame offsets: 
#        150
#        13881
#        23284
#        40338
#        58153
#        77204
#        90406
#        106650
#        123267
#        136137
#
# Disc length: 2083 seconds
#
# Revision: 0
# Processed by: cddbd v1.5.2PL0 Copyright (c) Steve Scherf et al.
# Submitted via: ExactAudioCopyFreeDBPlugin 1.0
#
DISCID=7008210a
DTITLE=Left Lane Cruiser - SLINGSHOT
DYEAR=2014
DGENRE=Blues
TTITLE0=Трек01
TTITLE1=Трек02
TTITLE2=Трек03
TTITLE3=Трек04
TTITLE4=Трек05
TTITLE5=Трек06
TTITLE6=Трек07
TTITLE7=Трек08
TTITLE8=Трек09
TTITLE9=Трек10
EXTD=
EXTT0=
EXTT1=
EXTT2=
EXTT3=
EXTT4=
EXTT5=
EXTT6=
EXTT7=
EXTT8=
EXTT9=
PLAYORDER=
